<svg xmlns="http://www.w3.org/2000/svg" viewBox="0 0 225.83 196.62"><defs><style>.cls-1{fill:#f3bd8b;}.cls-2{fill:#d54b52;}.cls-3{fill:#d62a46;}</style></defs><title>paper-p2</title><g id="Capa_2" data-name="Capa 2"><g id="Preview"><path class="cls-1" d="M134.07,165.53c-8.72.63-15.2-5.6-23.38-6.59-18.77-2.28-37.54-4.49-56.3-6.8-5.2-.64-10.42-1.3-15.55-2.32a12.79,12.79,0,0,1-10-13.89c.59-6.07,5.95-10.83,12.73-10.94,10.72-.17,21.2,2.15,31.83,2.89,1.84.13,4.47,1.13,5.45-.7,1.23-2.32-1.5-3.39-3.09-4.66Q41,94.84,6.33,67.15C-1,61.34-2,55.6,3.39,49.87c4.26-4.57,11.95-4.58,18.11.28q26.13,20.6,52.08,41.4c1.81,1.45,3.47,3,6.37,3.77.56-3.66-2.51-5.08-4.37-6.86-19.46-18.67-39-37.23-58.52-55.89-6.51-6.23-6.7-12.56-.86-17.93,5.26-4.83,12.35-4.21,18.68,1.77q29.44,27.83,58.84,55.7c1.61,1.52,2.95,5.36,5.69,3,2.53-2.17-1.15-4.35-2.61-6Q75.29,44.21,53.5,19.55c-3.79-4.31-5.35-9.07-2.32-14.06C54.07.74,58.92-.74,64.72.33c4,.74,6.21,3.61,8.51,6.24,13.86,15.87,27.6,31.83,41.46,47.69,1.44,1.65,2.63,5.33,5.57,3.31,2.38-1.64-.38-3.93-1.66-5.76Q106.09,34,93.66,16.11c-2.61-3.75-2.76-7.6-.19-11.41s6.61-5,11.36-4.39c3.94.48,6.11,3.17,8,5.81,10.75,15.24,21.06,30.75,32,45.84C151,60.41,160.79,65.71,168,73.31c3.76,3.94,8.18,7.33,12.22,11,8.54,7.83,10,17.67,9.17,28.17a11.36,11.36,0,0,0-5.39,3.31q-23,21.78-46,43.51A12.17,12.17,0,0,0,134.07,165.53Z"/><path class="cls-2" d="M134.07,165.53a12.17,12.17,0,0,1,4-6.19q23-21.73,46-43.51a11.36,11.36,0,0,1,5.39-3.31c11.17,1.57,20.28,12.78,18.34,22.58-2.78.51-4.44,2.46-6.26,4.2-5.93,5.66-11.89,11.3-17.78,17q-12.91,12.47-25.75,25c-5.35,1.54-9.8.91-13.43-3.67C141.26,173.46,135.31,171.28,134.07,165.53Z"/><path class="cls-3" d="M158,181.29q12.87-12.5,25.75-25c5.9-5.69,11.86-11.33,17.78-17,1.82-1.74,3.48-3.69,6.26-4.2,5.38,4.85,10.64,9.84,16.2,14.51,2.34,2,2.52,3.08.21,5.22C210,168,195.84,181.16,182,194.6c-3.32,3.22-5.12,2.14-8-.16C168.59,190.12,165.08,183.8,158,181.29Z"/></g></g></svg>