<svg xmlns="http://www.w3.org/2000/svg" viewBox="0 0 170.6 152.53"><defs><style>.cls-1{fill:#f4be88;}.cls-2{fill:#d54b52;}.cls-3{fill:#d62a46;}</style></defs><title>scissors-p2</title><g id="Capa_2" data-name="Capa 2"><g id="Preview"><path class="cls-1" d="M78.74,119.17c-3.8,2.49-8.73,1.76-11.88.66-12.53-4.39-25.84-5.48-38.55-9-5.74-1.59-9.83-4.14-12-9.36C13,93.34,9.56,85.23,6.17,77.11,4.39,72.84,4.33,68.62,7.61,65c2.05-2.29,1.52-3.66-.56-5.62-11-10.43-9.13-17.93,5.7-22.4,2.08-.63,2.38-1.41,2-3-1.44-5.91.67-10.87,6-13.71,5.76-3,11.42-1,16.45,3,1.45-1.53.61-3.19.87-4.62,1.35-7.62,8.56-12,16.46-9.47,3.86,1.23,6.15,1.24,8.48-2.56C67.84-1.16,75.62-2.08,82.8,3.87q20.13,16.69,40.07,33.57c9.49,8,10.14,18.47,9.12,29.35-14.84,15.15-29.63,30.34-44.56,45.41C84.86,114.81,83,118.33,78.74,119.17Z"/><path class="cls-2" d="M78.74,119.17c4.26-.84,6.11-4.36,8.69-7C102.36,97.14,117.16,81.95,132,66.8c10.07,1,15.36,8.34,21.15,14.62,2,2.13.2,5.49-1.5,8-10.42,8.36-19.09,18.31-28.22,27.79-6.33,6.57-13.52,12.6-18.25,20.44C94.2,139.2,83.46,131.69,78.74,119.17Z"/><path class="cls-3" d="M105.18,137.65c4.74-7.85,11.93-13.87,18.25-20.44,9.13-9.48,17.79-19.44,28.22-27.79,5.77,4.71,11.49,9.46,17.33,14.09,2.6,2.06,1.71,3.83-.11,5.68C155.2,123,141.46,136.83,127.92,150.8c-2.46,2.54-3.71,2.05-6.22,0C116.21,146.44,111.45,141.2,105.18,137.65Z"/></g></g></svg>