<svg xmlns="http://www.w3.org/2000/svg" viewBox="0 0 213.22 194.84"><defs><style>.cls-1{fill:#f4be88;}.cls-2{fill:#d54b52;}.cls-3{fill:#d62a46;}</style></defs><title>rock-p2</title><g id="Capa_2" data-name="Capa 2"><g id="Preview"><path class="cls-1" d="M123.23,157.44c-8.21-.37-15.37-2.93-22.8-6.55-9.56-4.66-20.42-7-30.82-10.12-4.19-1.24-6.95-3.73-8.15-7.3-3.15-9.31-5.88-18.74-8.75-28.13-.3-1-.87-2.19-.51-3,3.69-8-2.64-11.8-7.71-16.16Q24.23,68.79,4.05,51.31c-4.57-4-5.2-9-2.29-13.94s8.14-5.71,13.73-4.73c3,.52,4.83,2.62,6.94,4.38C33.14,46,42.82,56,55.54,65c-1.67-4.59-4.17-7-6.56-9.38C37.62,44.1,26.14,32.62,14.87,21c-6-6.22-6.15-13.32-.78-17.85C19.74-1.64,26.86-1,33,5.27c16,16.22,31.76,32.57,47.68,48.82,1.4,1.43,2.57,4,5,3.32,2.12-.6,1.21-3.22,1.72-4.93C89.32,46,98.53,42.59,105,46.12c1.65.91,3.13,2.09,4.56,3.07,2.12-1.19,1.64-3.1,2.44-4.49,4-6.94,12.79-9.15,18.65-3.63,14.15,13.3,28.25,26.71,41.3,40.92,7.73,8.42,5.46,19.24,3.52,29.39a11,11,0,0,1-1.7,2.57C156.9,128.44,141.08,144,123.23,157.44Z"/><path class="cls-2" d="M123.23,157.44c17.85-13.48,33.67-29,50.51-43.49a11,11,0,0,0,1.7-2.57c12.1-1.2,23.86,10.37,22,21.69-2.85,2.21-5.84,4.3-8.54,6.66q-22.45,19.64-44.79,39.39c-3.71,1.26-6.69.17-9.28-2.4-3.37-3.36-6.8-6.66-10.19-10C121.86,163.94,120.89,160.91,123.23,157.44Z"/><path class="cls-3" d="M144.15,179.11q22.38-19.71,44.79-39.39c2.7-2.36,5.68-4.45,8.54-6.66,2.67,5.8,8.22,9.33,12.66,13.7,3.67,3.61,4.57,6.09-.06,10-14,11.7-27.56,23.78-41.14,35.88-3.27,2.91-5.47,3.17-8.46-.29a128.89,128.89,0,0,0-10.32-10C148.49,180.74,146.92,178.88,144.15,179.11Z"/></g></g></svg>