<svg xmlns="http://www.w3.org/2000/svg" viewBox="0 0 316.95 296.35"><defs><style>.cls-1{fill:#f3bd8b;}.cls-2{fill:#239169;}.cls-3{fill:#2bd871;}</style></defs><title>Recurso 2</title><g id="Capa_2" data-name="Capa 2"><g id="P1-Choose"><path class="cls-1" d="M128.78,249.49c12.23,1,21.33-8.44,32.82-9.94,26.34-3.43,52.69-6.77,79-10.24,7.3-1,14.62-2,21.82-3.49,9-1.91,14.91-11.15,14-20.93a18.11,18.11,0,0,0-17.87-16.48c-15-.26-29.75,3.25-44.67,4.36-2.59.19-6.28,1.7-7.64-1.06-1.73-3.5,2.1-5.11,4.34-7q48.72-41.73,97.45-83.47c10.24-8.76,11.63-17.41,4.13-26.05-6-6.89-16.77-6.9-25.41.42Q250.12,106.63,213.7,138c-2.54,2.18-4.88,4.48-8.95,5.68-.79-5.52,3.52-7.65,6.13-10.34,27.31-28.15,54.8-56.11,82.13-84.23,9.13-9.39,9.41-18.94,1.21-27-7.39-7.28-17.33-6.35-26.22,2.68q-41.32,41.94-82.58,84c-2.26,2.29-4.13,8.08-8,4.53-3.55-3.27,1.61-6.55,3.66-9.1q30.17-37.49,60.75-74.66c5.32-6.5,7.5-13.67,3.25-21.18-4-7.16-10.86-9.4-19-7.79-5.66,1.12-8.72,5.44-11.94,9.4-19.45,23.92-38.73,48-58.19,71.89-2,2.48-3.69,8-7.81,5-3.34-2.47.53-5.92,2.33-8.68q17.53-26.87,35-53.81c3.66-5.65,3.87-11.45.27-17.19C182,1.16,176.48-.41,169.82.47c-5.53.73-8.58,4.77-11.2,8.76-15.09,23-29.55,46.35-45,69.09C105,91,91.28,99,81.12,110.5c-5.27,5.94-11.48,11-17.16,16.64-12,11.79-14.09,26.63-12.87,42.45,3.13.73,5.38,2.77,7.56,5q32.26,32.82,64.57,65.58C125.87,242.84,128,245.73,128.78,249.49Z"/><path class="cls-2" d="M128.78,249.49c-.76-3.76-2.92-6.65-5.56-9.33q-32.33-32.75-64.57-65.58c-2.18-2.22-4.42-4.26-7.56-5-15.67,2.37-28.46,19.27-25.75,34,3.9.76,6.23,3.71,8.79,6.33,8.32,8.54,16.69,17,25,25.61q18.12,18.79,36.14,37.67c7.5,2.32,13.75,1.37,18.85-5.54C118.7,261.44,127,258.15,128.78,249.49Z"/><path class="cls-3" d="M95.23,273.24Q77.16,254.4,59.09,235.56c-8.27-8.58-16.64-17.07-25-25.61-2.56-2.63-4.89-5.57-8.79-6.33-7.55,7.32-14.94,14.82-22.74,21.86-3.28,3-3.54,4.65-.3,7.87,19.91,19.82,39.79,39.69,59.25,60,4.66,4.85,7.18,3.23,11.21-.24C80.34,286.56,85.27,277,95.23,273.24Z"/></g></g></svg>