<svg xmlns="http://www.w3.org/2000/svg" viewBox="0 0 239.43 229.9"><defs><style>.cls-1{fill:#f4be88;}.cls-2{fill:#d54b52;}.cls-3{fill:#d62a46;}</style></defs><title>Recurso 4</title><g id="Capa_2" data-name="Capa 2"><g id="P2-Choose"><path class="cls-1" d="M128.91,179.61c5.33,3.75,12.25,2.66,16.67,1,17.59-6.61,36.27-8.26,54.1-13.56,8.05-2.4,13.8-6.25,16.81-14.11,4.7-12.26,9.52-24.47,14.26-36.7,2.5-6.44,2.58-12.8-2-18.3-2.88-3.44-2.14-5.51.78-8.48,15.47-15.72,12.81-27-8-33.76-2.91-.94-3.34-2.13-2.8-4.49,2-8.9-.94-16.38-8.49-20.67-8.09-4.59-16-1.55-23.09,4.51-2-2.3-.86-4.8-1.21-7-1.9-11.48-12-18.05-23.1-14.27-5.42,1.85-8.63,1.87-11.91-3.86-6.71-11.7-17.63-13.09-27.71-4.11Q95,31,67,56.44c-13.31,12.07-14.24,27.84-12.8,44.24,20.82,22.84,41.59,45.73,62.54,68.45C120.33,173,122.94,178.35,128.91,179.61Z"/><path class="cls-2" d="M128.91,179.61c-6-1.26-8.58-6.57-12.2-10.49-21-22.72-41.72-45.61-62.54-68.45-14.13,1.57-21.55,12.57-29.68,22-2.75,3.2-.29,8.27,2.1,12,14.63,12.59,26.79,27.6,39.6,41.89,8.88,9.9,19,19,25.62,30.81C107.22,209.8,122.29,198.48,128.91,179.61Z"/><path class="cls-3" d="M91.82,207.46c-6.65-11.82-16.74-20.91-25.62-30.81-12.81-14.29-25-29.3-39.6-41.89C18.5,141.85,10.47,149,2.28,156c-3.65,3.1-2.4,5.78.15,8.56,19.18,20.89,38.46,41.69,57.46,62.74,3.46,3.83,5.21,3.09,8.72.06C76.33,220.71,83,212.82,91.82,207.46Z"/></g></g></svg>