<svg xmlns="http://www.w3.org/2000/svg" viewBox="0 0 299.24 293.66"><defs><style>.cls-1{fill:#f4be88;}.cls-2{fill:#239169;}.cls-3{fill:#2bd871;}</style></defs><title>scissors-p1</title><g id="Capa_2" data-name="Capa 2"><g id="P1-Choose"><path class="cls-1" d="M126.3,237.29c11.52-.56,21.57-4.41,32-9.87,13.41-7,28.66-10.61,43.25-15.26,5.88-1.87,9.75-5.62,11.44-11,4.41-14,8.25-28.24,12.28-42.4.42-1.47,1.22-3.3.72-4.49-5.18-12.11,3.7-17.79,10.83-24.36q28.43-26.23,56.75-52.57c6.41-6,7.29-13.52,3.21-21s-11.43-8.61-19.26-7.13c-4.18.79-6.78,3.95-9.74,6.61-15,13.48-28.6,28.58-46.47,42.24,2.34-6.92,5.86-10.49,9.2-14.14,16-17.43,32.07-34.74,47.88-52.3,8.45-9.38,8.64-20.07,1.09-26.9-7.92-7.17-17.92-6.16-26.53,3.25C230.55,32.39,208.36,57,186,81.52c-2,2.16-3.61,6-7,5-3-.91-1.7-4.86-2.41-7.42-2.71-9.8-15.64-14.9-24.66-9.59-2.32,1.37-4.39,3.15-6.4,4.62-3-1.79-2.31-4.68-3.43-6.77-5.62-10.46-17.94-13.79-26.17-5.48-19.85,20-39.64,40.26-58,61.68-10.86,12.7-7.66,29-4.95,44.3.78,1.31,1.31,2.89,2.38,3.88C79,193.59,101.25,217,126.3,237.29Z"/><path class="cls-2" d="M126.3,237.29C101.25,217,79,193.59,55.4,171.74c-1.07-1-1.6-2.57-2.38-3.88-17-1.81-33.48,15.63-30.92,32.69,4,3.34,8.19,6.48,12,10Q65.59,240.19,96.94,270c5.75,2.09,10.26-.12,14.15-4.92a90.11,90.11,0,0,1,11.09-11.8C127.65,248.55,130.1,243.36,126.3,237.29Z"/><path class="cls-3" d="M96.94,270q-31.41-29.7-62.86-59.38c-3.79-3.56-8-6.7-12-10-3.74,8.74-11.54,14.06-17.76,20.64-5.15,5.44-6.41,9.17.08,15C24,253.83,43.1,272,62.15,290.28c4.58,4.39,7.68,4.78,11.88-.44,4.36-5.42,9.52-10.2,14.48-15.12C90.84,272.41,93,269.61,96.94,270Z"/></g></g></svg>